<svg width="25" height="26" viewBox="0 0 25 26" fill="none" xmlns="http://www.w3.org/2000/svg">
<path d="M9.75557 4.11771C7.91151 3.23729 5.33401 2.80599 1.88323 2.79068C1.55781 2.78625 1.23875 2.8812 0.968648 3.06276C0.74693 3.2126 0.565419 3.41463 0.440107 3.65114C0.314794 3.8876 0.249534 4.15125 0.250003 4.41885V19.0212C0.250003 20.0083 0.952294 20.753 1.88323 20.753C5.51063 20.753 9.14917 21.0919 11.3286 23.1518C11.3583 23.1801 11.3959 23.199 11.4363 23.2062C11.4768 23.2134 11.5185 23.2086 11.5563 23.1922C11.594 23.1759 11.6261 23.1489 11.6486 23.1145C11.6711 23.08 11.683 23.0397 11.6828 22.9987V5.79281C11.6829 5.67677 11.658 5.56198 11.6099 5.4563C11.5619 5.35068 11.4917 5.25656 11.4041 5.18036C10.9049 4.75359 10.3504 4.39614 9.75557 4.11771Z" fill="#8A8A8A"/>
<path d="M24.0291 3.06123C23.7588 2.88014 23.4398 2.78576 23.1145 2.79071C19.6637 2.80602 17.0862 3.2353 15.2422 4.11774C14.6474 4.39566 14.0928 4.75238 13.5931 5.17832C13.5057 5.25467 13.4357 5.34884 13.3877 5.45446C13.3397 5.56009 13.3149 5.67477 13.3149 5.79087V22.9977C13.3149 23.0372 13.3266 23.0758 13.3484 23.1088C13.3703 23.1416 13.4014 23.1674 13.4378 23.1827C13.4742 23.198 13.5143 23.2023 13.5531 23.1948C13.5919 23.1874 13.6276 23.1687 13.6559 23.1411C14.966 21.8396 17.2654 20.7514 23.1166 20.752C23.5497 20.752 23.9651 20.5799 24.2714 20.2736C24.5778 19.9673 24.7498 19.5519 24.7498 19.1187V4.41936C24.7504 4.15123 24.685 3.88707 24.5593 3.65019C24.4336 3.41332 24.2515 3.21108 24.0291 3.06123Z" fill="#8A8A8A"/>
</svg>
