<svg width="45" height="45" viewBox="0 0 45 45" fill="none" xmlns="http://www.w3.org/2000/svg">
<rect x="0.5" y="0.5" width="44" height="44" rx="22" stroke="black"/>
<path d="M28.3103 14.6667L26.227 13.5729C24.3978 12.6135 23.4833 12.1333 22.4999 12.1333C21.5166 12.1333 20.602 12.6125 18.7728 13.5729L18.4385 13.749L27.7333 19.0604L31.9166 16.9667C31.2437 16.2042 30.1583 15.6344 28.3103 14.6646M32.6541 18.3458L28.4895 20.4292V23.5917C28.4895 23.7989 28.4072 23.9976 28.2607 24.1441C28.1142 24.2906 27.9155 24.3729 27.7083 24.3729C27.5011 24.3729 27.3023 24.2906 27.1558 24.1441C27.0093 23.9976 26.927 23.7989 26.927 23.5917V21.2104L23.2812 23.0333V32.8667C24.0291 32.6802 24.8801 32.2344 26.227 31.5271L28.3103 30.4333C30.551 29.2573 31.6718 28.6698 32.2947 27.6125C32.9166 26.5562 32.9166 25.2406 32.9166 22.6125V22.4906C32.9166 20.5187 32.9166 19.2854 32.6541 18.3458ZM21.7187 32.8667V23.0333L12.3458 18.3458C12.0833 19.2854 12.0833 20.5187 12.0833 22.4885V22.6104C12.0833 25.2406 12.0833 26.5562 12.7051 27.6125C13.328 28.6698 14.4489 29.2583 16.6895 30.4344L18.7728 31.5271C20.1197 32.2344 20.9708 32.6802 21.7187 32.8667ZM13.0833 16.9677L22.4999 21.676L26.053 19.9L16.7968 14.6104L16.6895 14.6667C14.8426 15.6354 13.7562 16.2052 13.0833 16.9687" fill="#0C0404"/>
</svg>
