<svg width="16" height="16" viewBox="0 0 16 16" fill="none" xmlns="http://www.w3.org/2000/svg">
<path d="M11.7183 2.95467L10.385 2.25467C9.21434 1.64067 8.62901 1.33333 7.99967 1.33333C7.37034 1.33333 6.78501 1.64 5.61434 2.25467L5.40034 2.36733L11.349 5.76667L14.0263 4.42667C13.5957 3.93867 12.901 3.574 11.7183 2.95333M14.4983 5.30933L11.833 6.64267V8.66667C11.833 8.79927 11.7803 8.92645 11.6866 9.02022C11.5928 9.11399 11.4656 9.16667 11.333 9.16667C11.2004 9.16667 11.0732 9.11399 10.9795 9.02022C10.8857 8.92645 10.833 8.79927 10.833 8.66667V7.14267L8.49967 8.30933V14.6027C8.97834 14.4833 9.52301 14.198 10.385 13.7453L11.7183 13.0453C13.1523 12.2927 13.8697 11.9167 14.2683 11.24C14.6663 10.564 14.6663 9.722 14.6663 8.04V7.962C14.6663 6.7 14.6663 5.91067 14.4983 5.30933ZM7.49967 14.6027V8.30933L1.50101 5.30933C1.33301 5.91067 1.33301 6.7 1.33301 7.96067V8.03867C1.33301 9.722 1.33301 10.564 1.73101 11.24C2.12967 11.9167 2.84701 12.2933 4.28101 13.046L5.61434 13.7453C6.47634 14.198 7.02101 14.4833 7.49967 14.6027ZM1.97301 4.42733L7.99967 7.44067L10.2737 6.304L4.34967 2.91867L4.28101 2.95467C3.09901 3.57467 2.40367 3.93933 1.97301 4.428" fill="#0C0404"/>
</svg>
