<svg width="19" height="18" viewBox="0 0 19 18" fill="none" xmlns="http://www.w3.org/2000/svg">
<g clip-path="url(#clip0_1293_9157)">
<path d="M18.2126 8.99999C18.2126 4.16426 14.2924 0.24408 9.45671 0.24408C4.62099 0.24408 0.700806 4.16426 0.700806 8.99999C0.700806 13.3703 3.90273 16.9927 8.0886 17.6495V11.531H5.86542V8.99999H8.0886V7.07095C8.0886 4.8765 9.39583 3.66436 11.3959 3.66436C12.3538 3.66436 13.3558 3.83537 13.3558 3.83537V5.99014H12.2518C11.164 5.99014 10.8248 6.6651 10.8248 7.35757V8.99999H13.2532L12.865 11.531H10.8248V17.6495C15.0107 16.9927 18.2126 13.3703 18.2126 8.99999Z" fill="#1877F2"/>
<path d="M12.865 11.531L13.2532 9H10.8248V7.35758C10.8248 6.66504 11.164 5.99015 12.2517 5.99015H13.3558V3.83538C13.3558 3.83538 12.3538 3.66437 11.3957 3.66437C9.39577 3.66437 8.08854 4.87651 8.08854 7.07096V9H5.86536V11.531H8.08854V17.6495C8.54112 17.7204 8.99854 17.756 9.45665 17.7559C9.91475 17.756 10.3722 17.7204 10.8248 17.6495V11.531H12.865Z" fill="white"/>
</g>
<defs>
<clipPath id="clip0_1293_9157">
<rect width="17.5118" height="17.5118" fill="white" transform="translate(0.700806 0.24408)"/>
</clipPath>
</defs>
</svg>
