<svg width="25" height="25" viewBox="0 0 25 25" fill="none" xmlns="http://www.w3.org/2000/svg">
<path d="M15.1787 16.9643C15.4155 16.9643 15.6426 17.0584 15.8101 17.2258C15.9775 17.3932 16.0716 17.6203 16.0716 17.8571C16.0716 18.0939 15.9775 18.321 15.8101 18.4885C15.6426 18.6559 15.4155 18.75 15.1787 18.75H9.82157C9.58477 18.75 9.35767 18.6559 9.19022 18.4885C9.02278 18.321 8.92871 18.0939 8.92871 17.8571C8.92871 17.6203 9.02278 17.3932 9.19022 17.2258C9.35767 17.0584 9.58477 16.9643 9.82157 16.9643H15.1787ZM18.7501 11.6071C18.9869 11.6071 19.214 11.7012 19.3815 11.8687C19.5489 12.0361 19.643 12.2632 19.643 12.5C19.643 12.7368 19.5489 12.9639 19.3815 13.1313C19.214 13.2988 18.9869 13.3929 18.7501 13.3929H6.25014C6.01334 13.3929 5.78624 13.2988 5.61879 13.1313C5.45135 12.9639 5.35728 12.7368 5.35728 12.5C5.35728 12.2632 5.45135 12.0361 5.61879 11.8687C5.78624 11.7012 6.01334 11.6071 6.25014 11.6071H18.7501ZM21.4287 6.25C21.6655 6.25 21.8926 6.34407 22.0601 6.51151C22.2275 6.67896 22.3216 6.90606 22.3216 7.14286C22.3216 7.37966 22.2275 7.60676 22.0601 7.7742C21.8926 7.94165 21.6655 8.03571 21.4287 8.03571H3.57157C3.33477 8.03571 3.10767 7.94165 2.94022 7.7742C2.77278 7.60676 2.67871 7.37966 2.67871 7.14286C2.67871 6.90606 2.77278 6.67896 2.94022 6.51151C3.10767 6.34407 3.33477 6.25 3.57157 6.25H21.4287Z" fill="#757575"/>
</svg>
