<svg width="18" height="18" viewBox="0 0 18 18" fill="none" xmlns="http://www.w3.org/2000/svg">
<path d="M16.1547 7.57098H15.567V7.5407H9.00008V10.4593H13.1237C12.5221 12.1583 10.9056 13.378 9.00008 13.378C6.58235 13.378 4.62213 11.4177 4.62213 9.00002C4.62213 6.58229 6.58235 4.62207 9.00008 4.62207C10.1161 4.62207 11.1314 5.04308 11.9045 5.73078L13.9683 3.66694C12.6652 2.45242 10.922 1.70343 9.00008 1.70343C4.97054 1.70343 1.70349 4.97048 1.70349 9.00002C1.70349 13.0296 4.97054 16.2966 9.00008 16.2966C13.0296 16.2966 16.2967 13.0296 16.2967 9.00002C16.2967 8.51078 16.2463 8.03322 16.1547 7.57098Z" fill="#FFC107"/>
<path d="M2.54468 5.60382L4.94197 7.36193C5.59064 5.75595 7.16159 4.62207 8.99997 4.62207C10.116 4.62207 11.1313 5.04308 11.9044 5.73078L13.9682 3.66694C12.665 2.45242 10.9219 1.70343 8.99997 1.70343C6.19735 1.70343 3.76686 3.2857 2.54468 5.60382Z" fill="#FF3D00"/>
<path d="M9.00091 16.2966C10.8856 16.2966 12.5981 15.5753 13.8929 14.4024L11.6346 12.4914C10.8774 13.0672 9.95219 13.3787 9.00091 13.3779C7.10307 13.3779 5.49162 12.1678 4.88454 10.479L2.50513 12.3123C3.71271 14.6753 6.1651 16.2966 9.00091 16.2966Z" fill="#4CAF50"/>
<path d="M16.1552 7.57096H15.5674V7.54068H9.00049V10.4593H13.1242C12.8364 11.2679 12.318 11.9745 11.6331 12.4918L11.6342 12.491L13.8925 14.402C13.7327 14.5472 16.2971 12.6483 16.2971 9C16.2971 8.51076 16.2467 8.0332 16.1552 7.57096Z" fill="#1976D2"/>
</svg>
