<svg width="16" height="16" viewBox="0 0 16 16" fill="none" xmlns="http://www.w3.org/2000/svg">
<path d="M7.96634 11.9999C8.19968 11.9999 8.39701 11.9193 8.55834 11.7579C8.71968 11.5966 8.80012 11.3995 8.79967 11.1666C8.79923 10.9337 8.71879 10.7364 8.55834 10.5746C8.3979 10.4128 8.20056 10.3324 7.96634 10.3333C7.73212 10.3341 7.53501 10.4148 7.37501 10.5753C7.21501 10.7357 7.13434 10.9328 7.13301 11.1666C7.13168 11.4004 7.21234 11.5977 7.37501 11.7586C7.53767 11.9195 7.73479 11.9999 7.96634 11.9999ZM7.36634 9.43326H8.59968C8.59968 9.06659 8.64145 8.7777 8.72501 8.56659C8.80856 8.35548 9.04456 8.06659 9.43301 7.69992C9.7219 7.41103 9.94968 7.13592 10.1163 6.87459C10.283 6.61326 10.3663 6.29948 10.3663 5.93326C10.3663 5.31103 10.1386 4.83326 9.68301 4.49992C9.22745 4.16659 8.68856 3.99992 8.06634 3.99992C7.43301 3.99992 6.91923 4.16659 6.52501 4.49992C6.13079 4.83326 5.85568 5.23326 5.69968 5.69992L6.79967 6.13326C6.85523 5.93326 6.98034 5.71659 7.17501 5.48326C7.36968 5.24992 7.66679 5.13326 8.06634 5.13326C8.4219 5.13326 8.68856 5.23059 8.86634 5.42526C9.04412 5.61992 9.13301 5.8337 9.13301 6.06659C9.13301 6.28881 9.06634 6.49726 8.93301 6.69192C8.79967 6.88659 8.63301 7.06703 8.43301 7.23326C7.94412 7.66659 7.64412 7.99437 7.53301 8.21659C7.4219 8.43881 7.36634 8.84437 7.36634 9.43326ZM7.99968 14.6666C7.07745 14.6666 6.21079 14.4917 5.39968 14.1419C4.58856 13.7921 3.88301 13.317 3.28301 12.7166C2.68301 12.1161 2.20812 11.4106 1.85834 10.5999C1.50856 9.78926 1.33345 8.92259 1.33301 7.99992C1.33256 7.07726 1.50768 6.21059 1.85834 5.39992C2.20901 4.58926 2.6839 3.8837 3.28301 3.28326C3.88212 2.68281 4.58768 2.20792 5.39968 1.85859C6.21168 1.50926 7.07834 1.33414 7.99968 1.33326C8.92101 1.33237 9.78767 1.50748 10.5997 1.85859C11.4117 2.2097 12.1172 2.68459 12.7163 3.28326C13.3155 3.88192 13.7906 4.58748 14.1417 5.39992C14.4928 6.21237 14.6677 7.07903 14.6663 7.99992C14.665 8.92081 14.4899 9.78748 14.141 10.5999C13.7921 11.4124 13.3172 12.1179 12.7163 12.7166C12.1155 13.3153 11.4099 13.7904 10.5997 14.1419C9.78945 14.4935 8.92279 14.6684 7.99968 14.6666Z" fill="#0C0404"/>
</svg>
