<svg width="275" height="275" viewBox="0 0 275 275" fill="none" xmlns="http://www.w3.org/2000/svg">
<path d="M64.3556 220.648C62.604 219.686 60.6354 219.187 58.6368 219.2H57.7028C57.3123 219.235 56.9241 219.293 56.54 219.371C55.5479 219.552 54.5939 219.9 53.7187 220.401C52.4969 221.231 51.4934 222.344 50.7932 223.645C50.0931 224.945 49.7169 226.396 49.6965 227.873C51.3221 226.567 53.331 225.831 55.4153 225.776C58.6344 225.994 61.7327 227.088 64.3747 228.941C65.667 229.762 67.0177 230.489 68.4159 231.114C70.0159 231.756 71.7242 232.086 73.4484 232.086C76.9567 232.041 80.3349 230.751 82.9797 228.445C85.7956 226.277 87.8079 223.231 88.6984 219.791C89.4003 215.979 89.1648 212.054 88.0122 208.353C87.8025 207.591 87.5547 206.637 87.2115 205.494L86.3347 202.634C85.7056 200.309 85.2481 198.441 84.9812 196.916C84.619 194.781 84.3712 192.836 84.2569 191.197C84.0821 189.087 84.146 186.964 84.4475 184.868C85.1718 180.014 87.4149 177.027 91.1765 175.909C90.4703 175.84 89.7579 175.872 89.0606 176.004C88.3538 176.118 87.6538 176.271 86.9637 176.462C84.4757 177.081 82.2189 178.405 80.4634 180.274C78.6733 182.166 77.3656 184.461 76.6509 186.965C75.5886 191.367 75.7136 195.971 77.0131 200.309C77.6399 202.504 78.3909 204.661 79.2625 206.771C79.6437 207.705 80.0631 208.677 80.5968 209.935L81.3212 211.441L81.9884 212.985L82.9415 215.101C83.2847 215.921 83.5897 216.645 83.7993 217.293C84.344 218.783 84.6714 220.343 84.7715 221.926C84.8028 222.898 84.5715 223.861 84.1018 224.713C83.6322 225.565 82.9416 226.275 82.1028 226.767C80.4181 227.909 78.4186 228.496 76.384 228.445C74.8031 228.421 73.267 227.916 71.9806 226.996C71.4278 226.596 70.7987 226.1 70.0743 225.528L69.1784 224.671L68.2634 223.794C67.0065 222.58 65.6118 221.518 64.1078 220.629" fill="#00AA4F"/>
<path d="M115.461 222.536C114.978 222.015 114.532 221.461 114.127 220.877L113.555 220.058L112.926 219.181C112.017 220.143 111.05 221.047 110.028 221.888L109.704 222.154L109.456 222.402C109.179 222.56 108.923 222.752 108.694 222.974C108.167 223.404 107.598 223.781 106.997 224.099C105.472 224.728 104.462 224.556 103.833 223.413C103.241 222.143 103.173 220.691 103.642 219.371C103.938 218.029 104.545 216.775 105.415 215.711C103.564 215.962 101.827 216.75 100.421 217.98C98.9648 219.185 97.8916 220.788 97.3325 222.593C97.0767 223.432 97.0116 224.318 97.1419 225.185C97.1552 225.599 97.2595 226.005 97.4473 226.374C97.6351 226.743 97.9018 227.066 98.2284 227.32C99.1407 227.93 100.219 228.243 101.317 228.216C103.775 228.268 106.186 227.533 108.198 226.119C109.03 225.562 109.754 224.858 110.333 224.042C110.823 224.707 111.351 225.344 111.915 225.948C112.435 226.434 113.011 226.856 113.631 227.206C114.262 227.574 114.978 227.771 115.709 227.778C116.492 227.858 117.282 227.723 117.994 227.387C118.707 227.051 119.314 226.527 119.75 225.872C120.019 225.479 120.189 225.028 120.246 224.556L120.379 224.118V223.927C120.215 224.068 120.023 224.174 119.817 224.239C119.611 224.305 119.394 224.328 119.178 224.308C118.464 224.314 117.756 224.171 117.1 223.888C116.444 223.606 115.853 223.191 115.366 222.669" fill="#00AA4F"/>
<path d="M140.834 218.799C139.766 218.933 138.508 218.227 137.021 216.779C136.129 215.801 135.16 214.896 134.124 214.072L132.809 215.387C132.294 215.902 131.665 216.531 131.036 217.293L129.263 219.2C128.518 220.005 127.842 220.873 127.242 221.792C126.533 222.837 125.938 223.955 125.47 225.128C124.536 227.911 125.47 229.169 128.501 228.941C128.767 228.941 129.778 227.816 131.531 225.471C131.851 225.091 132.216 224.752 132.618 224.461C131.876 224.572 131.119 224.506 130.407 224.27C130.056 224.136 129.75 223.905 129.525 223.605C129.299 223.305 129.162 222.948 129.13 222.574C129.055 221.821 129.166 221.062 129.454 220.362C129.835 219.486 130.331 219.047 130.979 219.104C131.625 219.375 132.19 219.808 132.618 220.362C133.171 220.934 133.933 221.811 134.886 222.955C136.907 225.357 137.975 226.558 137.975 226.482C139.061 225.414 141.272 222.879 144.608 218.857C145.248 220.499 146.1 222.05 147.144 223.47C148.023 224.658 149.085 225.7 150.289 226.558C151.517 227.457 152.999 227.944 154.521 227.949C154.927 227.928 155.329 227.864 155.722 227.759C156.197 227.636 156.643 227.422 157.037 227.13C158.283 226.12 159.1 224.676 159.325 223.088C158.851 223.492 158.267 223.744 157.648 223.812C157.03 223.88 156.405 223.761 155.855 223.47C154.393 222.838 153.09 221.887 152.043 220.687C150.856 219.491 149.813 218.16 148.936 216.722C148.305 215.819 147.893 214.781 147.735 213.691C147.735 213.691 146.801 214.51 144.837 216.264C143.744 217.49 142.38 218.443 140.853 219.047" fill="#00AA4F"/>
<path d="M179.188 218.799C178.101 218.933 176.843 218.227 175.375 216.779C174.479 215.798 173.503 214.893 172.459 214.072C171.906 214.644 171.449 215.082 171.144 215.387C170.839 215.692 170 216.531 169.371 217.293L167.598 219.2C166.887 220.005 166.249 220.873 165.692 221.792C164.975 222.832 164.38 223.952 163.919 225.128C162.966 227.911 163.919 229.169 166.95 228.941C167.198 228.941 168.208 227.816 169.981 225.471C170.291 225.089 170.65 224.749 171.048 224.461C170.306 224.571 169.549 224.505 168.837 224.27C168.483 224.143 168.175 223.914 167.951 223.612C167.728 223.31 167.598 222.949 167.579 222.574C167.506 221.823 167.611 221.065 167.884 220.362C168.265 219.486 168.78 219.047 169.409 219.104C170.055 219.374 170.62 219.808 171.048 220.362C171.62 220.934 172.383 221.811 173.317 222.955C175.337 225.357 176.405 226.558 176.405 226.481C177.472 225.414 179.684 222.879 183.039 218.856C183.671 220.498 184.517 222.049 185.555 223.47C186.456 224.575 187.523 225.533 188.719 226.31C189.939 227.211 191.415 227.699 192.932 227.701C193.338 227.681 193.741 227.617 194.133 227.511C194.614 227.39 195.068 227.176 195.467 226.882C196.7 225.864 197.509 224.423 197.736 222.841C197.263 223.247 196.679 223.5 196.06 223.568C195.441 223.636 194.816 223.516 194.266 223.222C192.804 222.59 191.502 221.639 190.454 220.439C189.267 219.247 188.23 217.916 187.366 216.474C186.735 215.571 186.324 214.533 186.165 213.443C186.165 213.443 185.212 214.262 183.248 216.016C182.134 217.252 180.742 218.206 179.188 218.799Z" fill="#00AA4F"/>
<path d="M214.664 223.355L215.35 224.175L215.979 224.995C216.394 225.583 216.839 226.149 217.313 226.691C217.7 227.179 218.237 227.524 218.841 227.672C219.445 227.821 220.081 227.764 220.649 227.511C221.63 227.153 222.55 226.645 223.375 226.005C224.058 225.537 224.658 224.957 225.148 224.289C224.589 224.312 224.029 224.248 223.49 224.099C222.985 223.858 222.551 223.49 222.231 223.031C221.976 222.733 221.747 222.414 221.545 222.078L221.164 221.525L220.783 220.953C220.096 220.057 219.639 219.371 219.277 218.933C218.263 217.621 216.958 216.563 215.464 215.845C214.71 215.514 213.882 215.382 213.062 215.463C211.603 215.675 210.216 216.238 209.021 217.103C207.552 217.992 206.162 219.006 204.865 220.134C204.457 220.438 204.075 220.776 203.722 221.144C203.345 221.525 202.989 221.926 202.654 222.345C201.995 223.148 201.619 224.147 201.587 225.185C201.571 225.874 201.793 226.547 202.216 227.092C202.636 227.68 203.228 228.124 203.911 228.363C204.593 228.601 205.333 228.624 206.028 228.426C206.758 228.264 207.462 228.008 208.125 227.663C208.697 227.339 209.25 227.034 209.879 226.596C210.017 226.558 210.147 226.493 210.26 226.405L210.527 226.215L210.832 226.024C211.461 225.643 212.033 225.262 212.471 224.937C213.271 224.539 213.999 224.011 214.625 223.374M207.801 223.87C207.449 223.486 207.171 223.04 206.981 222.555C206.845 222.235 206.775 221.892 206.775 221.544C206.775 221.197 206.845 220.853 206.981 220.534C207.087 220.193 207.266 219.879 207.507 219.616C207.747 219.352 208.043 219.145 208.373 219.009C208.649 218.936 208.936 218.92 209.218 218.962C209.501 219.005 209.771 219.105 210.012 219.257C210.264 219.404 210.501 219.577 210.718 219.772L211.099 220.019L211.404 220.267C212.33 220.999 213.215 221.781 214.054 222.612C213.038 223.472 211.884 224.155 210.641 224.632C210.138 224.758 209.61 224.752 209.11 224.615C208.609 224.478 208.152 224.215 207.782 223.851L207.801 223.87Z" fill="#00AA4F"/>
<path fill-rule="evenodd" clip-rule="evenodd" d="M180.96 97.886C180.922 99.8514 181.438 101.788 182.45 103.474C183.461 105.159 184.927 106.526 186.679 107.417C187.208 107.634 187.724 107.883 188.223 108.161C187.994 108.733 187.804 108.713 187.804 109.609C187.804 113.041 187.384 114.184 190.11 114.184C191.311 114.184 192.017 113.613 192.017 112.412C192.017 111.211 192.017 109.914 192.017 108.599C194.762 108.52 197.374 107.395 199.318 105.454C199.922 104.87 200.43 104.194 200.823 103.452C199.22 104.559 197.344 105.205 195.399 105.321C193.454 105.438 191.515 105.02 189.791 104.112C188.066 103.205 186.623 101.843 185.618 100.175C184.613 98.5058 184.083 96.5936 184.087 94.6454C184.121 92.8099 184.619 91.0129 185.535 89.4222C184.266 90.279 183.214 91.4216 182.466 92.7582C181.567 94.3252 181.087 96.0982 181.075 97.9051" fill="#00AA4F"/>
<path fill-rule="evenodd" clip-rule="evenodd" d="M154.94 48.9715C154.927 50.7651 155.518 52.5109 156.618 53.9277C157.578 55.2112 158.909 56.1693 160.43 56.6727C160.078 57.7276 159.973 58.8497 160.125 59.9515C160.125 61.3431 160.869 61.4193 162.032 61.4193C163.709 61.4193 163.518 59.8371 163.442 57.8356V57.1493C164.878 57.1142 166.279 56.6999 167.502 55.9484C168.609 55.2832 169.533 54.3529 170.19 53.2415C168.777 54.1419 167.138 54.6243 165.463 54.6331C163.31 54.618 161.251 53.755 159.731 52.2312C158.21 50.7075 157.352 48.6458 157.342 46.4934C157.348 45.0568 157.722 43.6458 158.429 42.3949C157.368 43.1319 156.501 44.1153 155.903 45.2607C155.306 46.4062 154.995 47.6795 154.997 48.9715" fill="#00AA4F"/>
<path fill-rule="evenodd" clip-rule="evenodd" d="M186.696 121.886V122.152C187.421 123.563 187.783 123.887 189.823 123.868C190.53 123.978 191.254 123.851 191.881 123.506C192.758 122.972 192.453 122.915 192.987 122.172V121.905C192.987 120.399 192.987 118.817 192.987 117.292C192.987 115.767 192.739 114.68 191.443 114.146C190.951 114.479 190.355 114.622 189.765 114.547C188.564 114.547 188.793 114.318 188.088 114.146C186.83 114.737 186.601 115.576 186.62 117.292C186.639 119.007 186.62 120.361 186.62 121.886" fill="#00AA4F"/>
<path fill-rule="evenodd" clip-rule="evenodd" d="M159.61 68.0913C160.772 67.5766 159.61 68.2248 161.802 68.2248C163.994 68.2248 162.831 67.5766 164.051 68.0532C164.299 67.2526 164.833 62.7348 163.632 61.7244C162.965 61.1716 162.907 61.7244 161.725 61.7244C160.544 61.7244 160.639 61.1526 159.972 61.7244C159.729 61.9469 159.542 62.2232 159.427 62.5312C159.311 62.8392 159.269 63.1701 159.305 63.4973C159.187 65.0512 159.264 66.6136 159.533 68.1485" fill="#00AA4F"/>
<path fill-rule="evenodd" clip-rule="evenodd" d="M90.8707 177.415H43.4814V172.496C51.3351 172.649 54.5376 172.496 62.4295 172.496C62.8489 172.496 85.5142 172.496 85.9717 172.496H86.1242H44.9682C44.0532 172.496 43.5195 172.344 43.4242 172.801V176.614C43.4242 177.434 43.2717 177.529 43.977 177.548H90.5467C90.8517 177.548 90.7373 177.548 90.8707 177.376" fill="white"/>
<path fill-rule="evenodd" clip-rule="evenodd" d="M193.027 122.172C192.494 122.915 192.799 122.972 191.922 123.506C191.299 123.864 190.575 124.005 189.863 123.906C187.823 123.906 187.461 123.601 186.737 122.191C186.985 123.887 188.014 124.326 189.863 124.326C190.617 124.453 191.391 124.297 192.036 123.887C192.312 123.695 192.543 123.446 192.714 123.156C192.885 122.867 192.992 122.544 193.027 122.21" fill="white"/>
<path d="M85.7812 180.541C86.2796 179.63 87.0049 178.864 87.8866 178.316C88.7683 177.769 89.7766 177.458 90.8137 177.415" stroke="white" stroke-width="0.953125" stroke-miterlimit="2.61"/>
<path fill-rule="evenodd" clip-rule="evenodd" d="M85.991 177.205L89.041 175.813L89.7653 177.415L87.0585 178.844L86.5628 179.321L85.991 177.205Z" fill="white"/>
<path d="M91.4983 175.451H90.8693V176.137H91.4983V175.451Z" fill="#009C4E"/>
<path fill-rule="evenodd" clip-rule="evenodd" d="M159.61 68.0912C157.131 69.6162 151.985 72.3993 149.259 73.9053V95.5222L155.625 99.449L149.259 103.395V124.002L154.977 127.414C155.568 127.776 155.645 127.947 155.645 127.947L149.22 131.76V152.5C149.22 155.95 149.221 159.191 148.992 162.603C148.839 164.204 148.744 165.806 148.649 167.426C148.553 169.046 148.649 170.819 148.477 172.458H111.305V163.08C110.333 162.345 109.293 161.707 108.198 161.173L105.034 159.401C104.309 158.981 98.9527 155.95 98.6858 155.95C98.4189 155.95 93.1196 158.981 92.3571 159.401C90.2207 160.5 88.1461 161.715 86.1427 163.042V172.401H85.9902C85.5327 172.516 62.8674 172.401 62.448 172.401C54.5561 172.401 51.3536 172.554 43.3855 172.401V177.319H90.7749V166.111C91.3849 165.691 98.3999 161.669 98.6667 161.707L106.749 166.13V177.567H148.458C148.458 198.402 150.879 214.911 152.671 214.472C153.815 214.205 154.71 209.325 154.577 187.518H224.937C224.784 210.755 227.796 228.96 229.512 226.52C230.941 224.499 231.094 206.256 231.075 183.133C231.075 173.602 231.38 161.097 228.883 152.309C225.07 139.194 215.043 132.866 204.311 127.261C203.301 126.747 194.113 122.191 193.064 121.981V122.248C193.029 122.582 192.922 122.905 192.751 123.194C192.58 123.484 192.349 123.733 192.073 123.925C191.428 124.335 190.654 124.492 189.9 124.364C187.994 124.364 187.021 123.925 186.774 122.229V121.962C185.668 122.286 180.159 124.974 178.71 125.774L172.991 128.824C170.704 130.14 171.276 130.006 170.246 129.396L168.15 128.157L168.531 127.833C168.665 127.741 168.805 127.658 168.95 127.585L169.713 127.109L174.574 124.211V103.338C173.678 102.976 170.189 100.669 168.988 99.9828L168.359 99.5825L169.961 98.5531C171.486 97.7143 173.163 96.4753 174.726 95.7128V73.8672L164.394 68.1484C163.174 67.6718 164.394 68.32 162.145 68.32C159.895 68.32 161.116 67.6718 159.953 68.1865M154.386 77.3365C156.88 75.6605 159.471 74.1328 162.145 72.7615C162.259 72.7615 169.427 76.7837 169.961 77.2222V93.2347L164.242 96.6087C161.84 98.0193 162.679 98.0003 160.277 96.6087L156.464 94.3975C155.857 93.9875 155.22 93.6243 154.558 93.3109C153.929 88.3165 154.043 82.2547 154.043 77.2412L154.386 77.3365ZM157.97 103.7C159.193 102.9 160.467 102.181 161.783 101.546C161.954 101.546 168.912 105.568 169.522 105.987V121.79C169.522 122.133 169.026 122.305 168.702 122.496L161.783 126.442C159.121 125.109 156.537 123.626 154.043 122V105.911L157.97 103.7ZM154.043 134.314C155.126 133.787 156.177 133.195 157.189 132.542C158.275 131.932 159.228 131.379 160.239 130.769C162.145 129.625 161.554 129.777 163.384 130.769C164.423 131.337 165.423 131.973 166.377 132.675C162.721 135.093 159.428 138.02 156.598 141.367C155.683 142.511 154.329 144.665 154.081 144.97C153.948 143.083 154.024 136.545 154.043 134.314ZM154.653 181.227C154.501 177.739 154.653 173.736 154.787 170.266C154.977 164.052 155.492 156.732 157.894 151.089C158.676 149.176 159.708 147.375 160.963 145.733C162.144 144.168 163.479 142.724 164.947 141.425C168.02 138.843 171.325 136.552 174.821 134.581C179.67 131.885 184.659 129.448 189.766 127.28C190.91 127.128 204.273 134.143 206.561 135.611C209.426 137.307 212.115 139.287 214.586 141.52C215.085 141.946 215.562 142.398 216.015 142.873C218.374 145.286 220.262 148.117 221.582 151.223C223.793 157.331 224.878 163.79 224.784 170.285C224.784 172.287 225.032 179.645 224.918 181.265L154.653 181.227Z" fill="#00AA4F"/>
<path fill-rule="evenodd" clip-rule="evenodd" d="M85.7808 69.8449C85.4376 69.2159 85.0755 68.339 84.7514 67.7099C84.4273 67.0809 83.8936 66.3756 83.5123 65.8037C82.6243 64.5627 81.58 63.4415 80.4051 62.4677C79.7951 61.9912 79.3758 61.5527 78.6323 61.0381C74.4158 58.1159 69.2315 56.9403 64.167 57.7577C59.1025 58.5751 54.5513 61.3221 51.4683 65.4224C51.0019 66.0338 50.5692 66.6702 50.172 67.3287C48.4008 70.3937 47.4825 73.8772 47.5127 77.4171C47.5429 80.957 48.5203 84.4243 50.3436 87.4587C50.5395 87.7957 50.756 88.1204 50.9917 88.4309C51.2776 88.8121 51.4111 89.0981 51.6398 89.4031C54.0289 92.485 57.2902 94.7766 60.9995 95.9796C60.6183 98.3624 60.0464 100.269 59.8558 102.861C59.334 109.63 60.6513 116.414 63.6683 122.496C64.5591 124.234 65.5786 125.903 66.7183 127.49L68.4148 129.739L70.3211 131.76C72.1947 133.831 74.3061 135.674 76.6117 137.25C77.0501 137.517 77.3933 137.784 77.8126 138.032L78.9755 138.737C86.8174 143.187 95.9919 144.688 104.843 142.969C110.713 141.76 116.233 139.238 120.989 135.591C122.734 134.089 124.395 132.491 125.965 130.807C126.25 130.426 126.613 130.14 126.918 129.758C128.69 127.495 130.235 125.062 131.531 122.496C134.7 115.981 135.947 108.699 135.127 101.501C134.306 94.3035 131.452 87.4885 126.899 81.8543L124.992 79.7384C124.649 79.3571 124.382 79.0902 124.02 78.7471C123.658 78.404 123.315 78.1562 122.972 77.794C121.247 76.2251 119.384 74.8151 117.405 73.5812C115.761 72.5657 114.04 71.6798 112.259 70.9315C105.851 68.246 98.8305 67.3628 91.957 68.3771C89.5742 68.7393 87.8014 69.3302 85.6664 69.8449M58.8645 92.7199C58.0347 92.3446 57.264 91.8501 56.577 91.2521C55.8925 90.7302 55.2547 90.1498 54.6708 89.5174C52.4676 87.2171 50.9302 84.3618 50.2226 81.2562C49.515 78.1505 49.6638 74.9111 50.6529 71.8834C51.6421 68.8556 53.4347 66.1532 55.8393 64.0644C58.244 61.9756 61.1706 60.5787 64.3069 60.0228C67.4432 59.4669 70.6716 59.7728 73.6477 60.9079C76.6238 62.043 79.236 63.9647 81.2055 66.468C83.1751 68.9713 84.4281 71.9622 84.831 75.1219C85.2339 78.2815 84.7716 81.4912 83.4933 84.4087C82.807 86.1052 81.4345 87.0012 83.4933 89.6127L84.313 90.6612C85.0564 91.6524 86.2192 92.5674 86.8292 93.5968H86.6576C84.8435 93.9691 82.9766 94.0079 81.1486 93.7112C79.4077 93.3299 77.6439 93.0625 75.8683 92.9106V83.0743C76.688 83.2649 77.603 83.5318 77.8889 82.5977C78.1748 81.6637 77.4695 81.2634 76.7833 81.0537C77.8624 79.1732 78.2215 76.9647 77.7936 74.8393C77.1073 71.2746 75.3536 70.2452 73.8286 68.6249C73.0446 67.8702 72.1891 67.1935 71.2742 66.6043L69.2155 64.9649C68.6626 64.4121 68.3386 63.2112 67.3092 63.2112C66.2798 63.2112 65.9939 64.4884 65.403 65.1174C62.7342 67.6337 57.778 69.6162 56.863 75.049C56.6629 76.1968 56.6629 77.3706 56.863 78.5184C57.0991 79.4307 57.438 80.3132 57.8733 81.149C57.168 81.3587 56.4817 81.7399 56.7676 82.6931C57.0536 83.6462 57.9495 83.3602 58.8073 83.1696L58.8645 92.7199ZM86.4479 71.999C88.3452 71.2957 90.3142 70.8035 92.3192 70.5312C100.632 69.2867 109.117 71.0148 116.281 75.4112L119.579 77.6987C120.036 78.0799 120.227 78.1752 120.608 78.5184L125.202 83.2268C129.549 88.5027 132.279 94.9221 133.063 101.713C133.848 108.503 132.654 115.376 129.625 121.504C129.186 122.362 128.824 123.087 128.328 123.925C127.431 125.46 126.411 126.92 125.278 128.291C123.578 130.26 121.716 132.084 119.712 133.742L117.501 135.344C111.986 138.985 105.575 141.037 98.9714 141.276C92.3674 141.514 85.8253 139.93 80.062 136.697C76.9996 134.958 74.2169 132.766 71.8079 130.197C71.4648 129.816 71.2361 129.682 70.912 129.263L69.2345 127.223C65.5198 122.178 63.1396 116.277 62.3148 110.067C61.803 105.599 62.1196 101.076 63.2489 96.7231C66.6601 97.4505 70.2022 97.2731 73.5236 96.2084C74.4841 95.7582 75.4953 95.4254 76.5355 95.2171C77.6254 95.3651 78.707 95.5687 79.7761 95.8271C82.2542 96.2846 88.8117 96.5706 89.6505 94.8549C90.4892 93.1393 87.4583 90.9281 86.8673 90.2227C84.0461 86.7915 84.5798 87.573 85.5139 85.3999C86.4003 83.4401 86.9543 81.3464 87.1533 79.2046C87.2613 77.9361 87.2613 76.6606 87.1533 75.3921C86.9436 74.3437 86.467 72.6852 86.4479 71.999ZM67.2711 79.624C65.9964 79.6298 64.7233 79.7126 63.4586 79.8718C62.3879 80.1156 61.2964 80.256 60.1989 80.2912C59.5632 79.4897 59.1668 78.5249 59.0551 77.5081C58.5786 73.4287 61.1901 71.0459 64.1258 68.8727L65.2505 67.9959C66.0009 67.4052 66.7139 66.7686 67.3855 66.0896C68.9295 67.3859 70.7023 68.8727 72.3989 70.1118C73.663 71.0239 74.6326 72.2861 75.1881 73.7426C75.7436 75.1991 75.8608 76.7864 75.5251 78.3087C75.3538 79.0269 74.9915 79.6856 74.4767 80.2149C74.1336 80.2149 71.8651 79.7956 71.1789 79.7193L67.2711 79.624ZM61.1139 82.5024C65.2544 81.616 69.5356 81.616 73.6761 82.5024V93.6921C69.6294 95.2272 65.1606 95.2272 61.1139 93.6921V82.5024Z" fill="#00AA4F"/>
<path fill-rule="evenodd" clip-rule="evenodd" d="M96.4944 101.584C96.3038 101.965 96.0941 101.889 95.6557 102.118C94.7698 102.604 94.0924 103.397 93.7514 104.348C93.4104 105.299 93.4293 106.343 93.8045 107.281C94.1798 108.219 94.8855 108.987 95.7884 109.441C96.6913 109.894 97.729 110.002 98.7056 109.743C99.3528 109.534 99.9543 109.204 100.478 108.771C100.925 108.267 101.297 107.702 101.584 107.093C103.128 107.093 104.825 107.093 106.407 107.093C107.989 107.093 110.219 107.551 110.353 106.026C110.486 104.501 107.837 104.901 106.54 104.901C98.6675 104.844 102.938 105.263 100.517 102.937C99.3157 101.794 98.801 102.118 98.6103 101.641V87.84C98.6103 86.5628 99.0297 84.4087 97.5428 84.3706C96.056 84.3325 96.4182 86.4484 96.4182 87.84L96.4944 101.584ZM97.1997 103.872C97.4451 103.815 97.6992 103.808 97.9473 103.851C98.1954 103.893 98.4327 103.984 98.6454 104.119C98.8581 104.254 99.0419 104.429 99.1864 104.636C99.3309 104.842 99.4332 105.074 99.4872 105.32C99.568 105.688 99.5382 106.071 99.4016 106.422C99.265 106.772 99.0277 107.075 98.7195 107.291C98.4114 107.507 98.0462 107.627 97.67 107.635C97.2938 107.644 96.9234 107.541 96.6055 107.34C96.2876 107.139 96.0364 106.848 95.8835 106.504C95.7307 106.16 95.683 105.779 95.7466 105.408C95.8101 105.037 95.982 104.693 96.2406 104.42C96.4992 104.146 96.8329 103.956 97.1997 103.872Z" fill="#00AA4F"/>
<path fill-rule="evenodd" clip-rule="evenodd" d="M123.354 104.844C122.496 105.149 121.867 106.979 124.478 106.96C127.09 106.941 130.712 107.608 129.854 105.378C129.587 104.691 128.92 104.768 128.081 104.768C126.507 104.669 124.928 104.669 123.354 104.768" fill="#00AA4F"/>
<path fill-rule="evenodd" clip-rule="evenodd" d="M65.9379 104.844C65.5376 104.977 65.4613 104.844 65.3088 105.397C65.2541 105.573 65.236 105.759 65.2556 105.942C65.2753 106.126 65.3323 106.303 65.4232 106.464C65.7663 106.998 66.4907 106.922 67.3294 106.922C68.8595 107.01 70.3934 107.01 71.9235 106.922C72.0796 106.868 72.2207 106.777 72.3354 106.659C72.45 106.54 72.535 106.395 72.5833 106.237C72.6316 106.079 72.6419 105.912 72.6134 105.75C72.5849 105.587 72.5183 105.433 72.4191 105.301C72.076 104.729 71.3516 104.806 70.5129 104.806C68.9939 104.707 67.4691 104.745 65.9569 104.92" fill="#00AA4F"/>
<path fill-rule="evenodd" clip-rule="evenodd" d="M97.2194 130.883C96.1519 131.264 96.4759 132.999 96.4759 134.905C96.4759 136.125 96.1328 138.718 98.0009 138.032C99.0684 137.631 98.6681 135.267 98.6681 134.028C98.6681 132.789 98.9922 130.216 97.2194 130.883Z" fill="#00AA4F"/>
<path fill-rule="evenodd" clip-rule="evenodd" d="M98.6853 79.3V74.8394C98.6853 74.2675 98.6853 73.81 98.2468 73.5812C98.0152 73.4548 97.7487 73.4069 97.4875 73.4447C97.2263 73.4825 96.9844 73.604 96.7981 73.7909C96.2643 74.3437 96.4931 76.1928 96.4931 77.0697C96.4931 77.9466 95.9975 81.5875 98.1515 80.5962C98.6281 80.3866 98.6853 79.9481 98.6853 79.3Z" fill="#00AA4F"/>
<path fill-rule="evenodd" clip-rule="evenodd" d="M111.744 129.911C110.467 130.426 111.172 131.455 111.629 132.275C112.087 133.094 112.392 134.181 113.65 133.857C114.908 133.533 114.127 132.198 113.65 131.455C113.173 130.712 112.792 129.549 111.744 129.911Z" fill="#00AA4F"/>
<path fill-rule="evenodd" clip-rule="evenodd" d="M122.42 119.274C121.429 119.655 121.276 120.723 122.42 121.409C122.992 121.733 124.174 122.648 124.936 122.438C125.699 122.229 126.347 121.066 124.822 120.246C124.174 119.922 123.03 119.007 122.344 119.274" fill="#00AA4F"/>
<path fill-rule="evenodd" clip-rule="evenodd" d="M124.23 89.1554C123.431 89.5458 122.66 89.9917 121.923 90.4897C121.756 90.6772 121.657 90.9162 121.644 91.1673C121.63 91.4185 121.703 91.6666 121.849 91.871C121.996 92.0753 122.208 92.2235 122.45 92.2913C122.692 92.359 122.95 92.3421 123.181 92.2435C123.968 91.8526 124.726 91.4067 125.45 90.9091C125.628 90.7286 125.737 90.4914 125.759 90.2387C125.781 89.9859 125.713 89.7336 125.568 89.5254C125.424 89.3172 125.211 89.1662 124.966 89.0986C124.722 89.031 124.461 89.0511 124.23 89.1554Z" fill="#00AA4F"/>
<path fill-rule="evenodd" clip-rule="evenodd" d="M112.982 77.6416C112.372 77.8322 110.656 80.1769 111.075 81.2254C111.221 81.4482 111.442 81.61 111.699 81.6803C111.955 81.7506 112.229 81.7243 112.467 81.6066C112.944 81.416 113.649 80.0625 113.973 79.4907C114.564 78.4232 113.973 77.3366 112.905 77.5844" fill="#00AA4F"/>
<path fill-rule="evenodd" clip-rule="evenodd" d="M82.6916 129.949C82.0244 130.197 81.7956 130.864 81.1475 132.046C80.4994 133.228 81.3382 134.276 82.4247 133.838C82.9203 133.628 83.5685 132.275 83.8925 131.703C84.4644 130.673 83.8925 129.511 82.6916 129.949Z" fill="#00AA4F"/>
<path fill-rule="evenodd" clip-rule="evenodd" d="M72.1331 119.274C71.2829 119.635 70.4822 120.102 69.7503 120.666C69.5936 120.837 69.4957 121.054 69.4712 121.285C69.4466 121.515 69.4966 121.748 69.6138 121.948C69.731 122.149 69.9093 122.306 70.1225 122.398C70.3357 122.489 70.5727 122.51 70.7987 122.458C71.6177 122.067 72.4021 121.608 73.1434 121.085C73.3962 120.951 73.5854 120.722 73.6694 120.449C73.7534 120.175 73.7254 119.88 73.5914 119.627C73.4574 119.374 73.2285 119.185 72.955 119.101C72.6815 119.017 72.3859 119.045 72.1331 119.179" fill="#00AA4F"/>
</svg>
