<svg width="19" height="19" viewBox="0 0 19 19" fill="none" xmlns="http://www.w3.org/2000/svg">
<path d="M0.604248 0.927094C0.604248 0.719893 0.686558 0.521179 0.833071 0.374666C0.979584 0.228153 1.1783 0.145844 1.3855 0.145844H1.96675C2.95633 0.145844 3.55008 0.811468 3.88862 1.43022C4.11466 1.84272 4.27821 2.32084 4.40633 2.75418L4.5105 2.75001H17.5292C18.3938 2.75001 19.0188 3.57709 18.7813 4.40938L16.8772 11.0854C16.7064 11.6842 16.3453 12.2111 15.8483 12.5863C15.3513 12.9614 14.7457 13.1645 14.123 13.1646H7.92717C7.29955 13.1646 6.6893 12.9585 6.19021 12.578C5.69112 12.1975 5.33081 11.6636 5.16466 11.0583L4.373 8.17084L3.0605 3.74584L3.05946 3.73751C2.89696 3.14689 2.74487 2.59376 2.51779 2.18126C2.30008 1.78022 2.12508 1.70834 1.96779 1.70834H1.3855C1.1783 1.70834 0.979584 1.62603 0.833071 1.47952C0.686558 1.33301 0.604248 1.13429 0.604248 0.927094ZM7.37508 18.375C7.92762 18.375 8.45752 18.1555 8.84822 17.7648C9.23892 17.3741 9.45842 16.8442 9.45842 16.2917C9.45842 15.7391 9.23892 15.2092 8.84822 14.8185C8.45752 14.4278 7.92762 14.2083 7.37508 14.2083C6.82255 14.2083 6.29264 14.4278 5.90194 14.8185C5.51124 15.2092 5.29175 15.7391 5.29175 16.2917C5.29175 16.8442 5.51124 17.3741 5.90194 17.7648C6.29264 18.1555 6.82255 18.375 7.37508 18.375ZM14.6667 18.375C15.2193 18.375 15.7492 18.1555 16.1399 17.7648C16.5306 17.3741 16.7501 16.8442 16.7501 16.2917C16.7501 15.7391 16.5306 15.2092 16.1399 14.8185C15.7492 14.4278 15.2193 14.2083 14.6667 14.2083C14.1142 14.2083 13.5843 14.4278 13.1936 14.8185C12.8029 15.2092 12.5834 15.7391 12.5834 16.2917C12.5834 16.8442 12.8029 17.3741 13.1936 17.7648C13.5843 18.1555 14.1142 18.375 14.6667 18.375Z" fill="#8A8A8A"/>
</svg>
