<svg width="16" height="16" viewBox="0 0 16 16" fill="none" xmlns="http://www.w3.org/2000/svg">
<path d="M4.63333 5.36663C4.4 5.36663 4.23622 5.31929 4.142 5.22463C4.04778 5.12996 4.00044 4.96618 4 4.73329C4 4.28885 4.10556 3.87774 4.31667 3.49996C4.52778 3.12218 4.81111 2.81107 5.16667 2.56663L8 0.666626L10.8333 2.56663C11.1889 2.81107 11.4722 3.12218 11.6833 3.49996C11.8944 3.87774 12 4.28885 12 4.73329C12 4.96663 11.9527 5.13063 11.858 5.22529C11.7633 5.31996 11.5996 5.36707 11.3667 5.36663H4.63333ZM0.666667 14V5.81663C0.466667 5.6944 0.305556 5.53618 0.183333 5.34196C0.0611111 5.14774 0 4.92263 0 4.66663C0 4.41063 0.133333 4.09951 0.4 3.73329C0.666667 3.36707 0.977778 3.01151 1.33333 2.66663C1.68889 3.01107 2 3.36663 2.26667 3.73329C2.53333 4.09996 2.66667 4.41107 2.66667 4.66663C2.66667 4.92218 2.60556 5.14729 2.48333 5.34196C2.36111 5.53663 2.2 5.69463 2 5.81596V8.66663H3.33333V7.33329C3.33333 7.05551 3.42222 6.78885 3.6 6.53329C3.77778 6.27774 4.03333 6.11107 4.36667 6.03329H11.6333C11.9667 6.11107 12.2222 6.27774 12.4 6.53329C12.5778 6.78885 12.6667 7.05551 12.6667 7.33329V8.66663H14V5.81663C13.8 5.6944 13.6389 5.53618 13.5167 5.34196C13.3944 5.14774 13.3333 4.92263 13.3333 4.66663C13.3333 4.41063 13.4667 4.09951 13.7333 3.73329C14 3.36707 14.3111 3.01151 14.6667 2.66663C15.0222 3.01107 15.3333 3.36663 15.6 3.73329C15.8667 4.09996 16 4.41107 16 4.66663C16 4.92218 15.9389 5.14729 15.8167 5.34196C15.6944 5.53663 15.5333 5.69485 15.3333 5.81663V14H9.33333V11.3333C9.33333 10.9666 9.20289 10.6528 8.942 10.392C8.68111 10.1311 8.36711 10.0004 8 9.99996C7.63289 9.99951 7.31911 10.1302 7.05867 10.392C6.79822 10.6537 6.66756 10.9675 6.66667 11.3333V14H0.666667Z" fill="#0C0404"/>
</svg>
