<svg width="25" height="22" viewBox="0 0 25 22" fill="none" xmlns="http://www.w3.org/2000/svg">
<path d="M7.23958 7.88541C6.875 7.88541 6.6191 7.81145 6.47187 7.66353C6.32465 7.51562 6.25069 7.25971 6.25 6.89582C6.25 6.20138 6.41493 5.55902 6.74479 4.96874C7.07465 4.37846 7.51736 3.89235 8.07292 3.51041L12.5 0.541656L16.9271 3.51041C17.4826 3.89235 17.9253 4.37846 18.2552 4.96874C18.5851 5.55902 18.75 6.20138 18.75 6.89582C18.75 7.26041 18.676 7.51666 18.5281 7.66457C18.3802 7.81249 18.1243 7.8861 17.7604 7.88541H7.23958ZM1.04167 21.375V8.58853C0.729167 8.39756 0.477431 8.15034 0.286458 7.84686C0.0954861 7.54339 0 7.19166 0 6.79166C0 6.39166 0.208333 5.90555 0.625 5.33332C1.04167 4.7611 1.52778 4.20555 2.08333 3.66666C2.63889 4.20485 3.125 4.76041 3.54167 5.33332C3.95833 5.90624 4.16667 6.39235 4.16667 6.79166C4.16667 7.19096 4.07118 7.5427 3.88021 7.84686C3.68924 8.15103 3.4375 8.39791 3.125 8.58749V13.0417H5.20833V10.9583C5.20833 10.5243 5.34722 10.1076 5.625 9.70832C5.90278 9.30902 6.30208 9.0486 6.82292 8.92707H18.1771C18.6979 9.0486 19.0972 9.30902 19.375 9.70832C19.6528 10.1076 19.7917 10.5243 19.7917 10.9583V13.0417H21.875V8.58853C21.5625 8.39756 21.3108 8.15034 21.1198 7.84686C20.9288 7.54339 20.8333 7.19166 20.8333 6.79166C20.8333 6.39166 21.0417 5.90555 21.4583 5.33332C21.875 4.7611 22.3611 4.20555 22.9167 3.66666C23.4722 4.20485 23.9583 4.76041 24.375 5.33332C24.7917 5.90624 25 6.39235 25 6.79166C25 7.19096 24.9045 7.5427 24.7135 7.84686C24.5226 8.15103 24.2708 8.39825 23.9583 8.58853V21.375H14.5833V17.2083C14.5833 16.6354 14.3795 16.1451 13.9719 15.7375C13.5642 15.3299 13.0736 15.1257 12.5 15.125C11.9264 15.1243 11.4361 15.3285 11.0292 15.7375C10.6222 16.1465 10.4181 16.6368 10.4167 17.2083V21.375H1.04167Z" fill="#8A8A8A"/>
</svg>
