<svg width="21" height="21" viewBox="0 0 21 21" fill="none" xmlns="http://www.w3.org/2000/svg">
<path d="M19.0714 9.22769L15.1339 13.1652C14.949 13.3501 14.6982 13.454 14.4367 13.454C14.1752 13.454 13.9243 13.3501 13.7394 13.1652C13.5545 12.9803 13.4506 12.7295 13.4506 12.4679C13.4506 12.2064 13.5545 11.9556 13.7394 11.7707L15.9961 9.51562H13.5352C12.0071 9.51513 10.5223 10.0225 9.31417 10.958C8.10602 11.8936 7.2431 13.2041 6.86109 14.6836C6.82878 14.8088 6.77212 14.9264 6.69436 15.0296C6.6166 15.1329 6.51926 15.2199 6.40789 15.2855C6.29653 15.3512 6.17332 15.3943 6.0453 15.4123C5.91729 15.4304 5.78697 15.423 5.6618 15.3907C5.53662 15.3584 5.41904 15.3017 5.31575 15.224C5.21247 15.1462 5.12552 15.0489 5.05986 14.9375C4.9942 14.8261 4.95112 14.7029 4.93307 14.5749C4.91502 14.4469 4.92237 14.3166 4.95469 14.1914C5.44505 12.2889 6.55425 10.6035 8.10766 9.40053C9.66107 8.1976 11.5704 7.54549 13.5352 7.54687H15.9961L13.7411 5.28937C13.5561 5.10445 13.4522 4.85363 13.4522 4.59211C13.4522 4.33058 13.5561 4.07977 13.7411 3.89484C13.926 3.70992 14.1768 3.60603 14.4383 3.60603C14.6998 3.60603 14.9507 3.70992 15.1356 3.89484L19.0731 7.83234C19.1649 7.92392 19.2377 8.03272 19.2873 8.15251C19.3369 8.2723 19.3624 8.4007 19.3622 8.53036C19.3621 8.66001 19.3363 8.78836 19.2864 8.90803C19.2365 9.0277 19.1634 9.13633 19.0714 9.22769ZM15.75 16.7344H3.60938V7.21875C3.60938 6.95768 3.50566 6.7073 3.32106 6.52269C3.13645 6.33808 2.88607 6.23437 2.625 6.23437C2.36393 6.23437 2.11355 6.33808 1.92894 6.52269C1.74434 6.7073 1.64062 6.95768 1.64062 7.21875V17.7187C1.64062 17.9798 1.74434 18.2302 1.92894 18.4148C2.11355 18.5994 2.36393 18.7031 2.625 18.7031H15.75C16.0111 18.7031 16.2615 18.5994 16.4461 18.4148C16.6307 18.2302 16.7344 17.9798 16.7344 17.7187C16.7344 17.4577 16.6307 17.2073 16.4461 17.0227C16.2615 16.8381 16.0111 16.7344 15.75 16.7344Z" fill="#959595"/>
</svg>
