<svg width="16" height="16" viewBox="0 0 16 16" fill="none" xmlns="http://www.w3.org/2000/svg">
<path d="M11.7183 2.95471L10.385 2.25471C9.21434 1.64071 8.62901 1.33337 7.99967 1.33337C7.37034 1.33337 6.78501 1.64004 5.61434 2.25471L5.40034 2.36737L11.349 5.76671L14.0263 4.42671C13.5957 3.93871 12.901 3.57404 11.7183 2.95337M14.4983 5.30937L11.833 6.64271V8.66671C11.833 8.79932 11.7803 8.92649 11.6866 9.02026C11.5928 9.11403 11.4656 9.16671 11.333 9.16671C11.2004 9.16671 11.0732 9.11403 10.9795 9.02026C10.8857 8.92649 10.833 8.79932 10.833 8.66671V7.14271L8.49967 8.30937V14.6027C8.97834 14.4834 9.52301 14.198 10.385 13.7454L11.7183 13.0454C13.1523 12.2927 13.8697 11.9167 14.2683 11.24C14.6663 10.564 14.6663 9.72204 14.6663 8.04004V7.96204C14.6663 6.70004 14.6663 5.91071 14.4983 5.30937ZM7.49967 14.6027V8.30937L1.50101 5.30937C1.33301 5.91071 1.33301 6.70004 1.33301 7.96071V8.03871C1.33301 9.72204 1.33301 10.564 1.73101 11.24C2.12967 11.9167 2.84701 12.2934 4.28101 13.046L5.61434 13.7454C6.47634 14.198 7.02101 14.4834 7.49967 14.6027ZM1.97301 4.42737L7.99967 7.44071L10.2737 6.30404L4.34967 2.91871L4.28101 2.95471C3.09901 3.57471 2.40367 3.93937 1.97301 4.42804" fill="#0C0404"/>
</svg>
