<svg width="17" height="18" viewBox="0 0 17 18" fill="none" xmlns="http://www.w3.org/2000/svg">
<path d="M8.50008 0.666656C9.60515 0.666656 10.665 1.10564 11.4464 1.88704C12.2278 2.66845 12.6667 3.72825 12.6667 4.83332C12.6667 5.93839 12.2278 6.9982 11.4464 7.7796C10.665 8.561 9.60515 8.99999 8.50008 8.99999C7.39501 8.99999 6.3352 8.561 5.5538 7.7796C4.7724 6.9982 4.33341 5.93839 4.33341 4.83332C4.33341 3.72825 4.7724 2.66845 5.5538 1.88704C6.3352 1.10564 7.39501 0.666656 8.50008 0.666656ZM8.50008 11.0833C13.1042 11.0833 16.8334 12.9479 16.8334 15.25V17.3333H0.166748V15.25C0.166748 12.9479 3.89591 11.0833 8.50008 11.0833Z" fill="#8A8A8A"/>
</svg>
