<svg width="94" height="94" viewBox="0 0 94 94" fill="none" xmlns="http://www.w3.org/2000/svg">
<circle cx="46.631" cy="46.631" r="46.631" fill="#23A26D" fill-opacity="0.12"/>
<path d="M45.799 24.4258C33.5639 24.4258 23.5938 34.3959 23.5938 46.631C23.5938 58.8661 33.5639 68.8362 45.799 68.8362C58.0341 68.8362 68.0042 58.8661 68.0042 46.631C68.0042 34.3959 58.0341 24.4258 45.799 24.4258ZM56.4131 41.5238L43.8227 54.1142C43.5118 54.425 43.0899 54.6027 42.6458 54.6027C42.2017 54.6027 41.7798 54.425 41.469 54.1142L35.1849 47.8301C34.5409 47.1861 34.5409 46.1203 35.1849 45.4763C35.8288 44.8324 36.8947 44.8324 37.5386 45.4763L42.6458 50.5835L54.0593 39.1701C54.7033 38.5261 55.7691 38.5261 56.4131 39.1701C57.057 39.814 57.057 40.8577 56.4131 41.5238Z" fill="#23A26D"/>
</svg>
