<svg width="21" height="22" viewBox="0 0 21 22" fill="none" xmlns="http://www.w3.org/2000/svg">
<path d="M9.90617 8.57291C9.94783 8.6875 9.97908 8.79166 9.97908 8.91666V14.3542C9.97908 14.875 9.78117 15.375 9.427 15.7604L6.52075 18.9375L2.97909 15.3958L4.24992 14.125L7.16659 1.47916C7.23017 1.20093 7.39405 0.955898 7.62692 0.790888C7.85978 0.625878 8.14528 0.552469 8.42886 0.584694C8.71243 0.616918 8.97419 0.752515 9.16409 0.965567C9.35399 1.17862 9.45872 1.45418 9.45825 1.73958V6.90624C9.28842 6.86004 9.11341 6.83554 8.93742 6.83333C7.79158 6.83333 6.85408 7.77083 6.85408 8.91666V12.0417C6.85408 12.3333 7.08325 12.5625 7.37492 12.5625C7.66658 12.5625 7.89575 12.3333 7.89575 12.0417V8.91666C7.89575 8.34374 8.3645 7.87499 8.93742 7.87499C9.13533 7.87499 9.302 7.94791 9.45825 8.04166C9.58325 8.11458 9.677 8.20833 9.77075 8.31249C9.802 8.35416 9.83325 8.39583 9.85408 8.44791C9.87492 8.48958 9.89575 8.53124 9.90617 8.57291ZM0.083252 18.2917L4.24992 21.4167L5.46867 20.0937L1.87492 16.5L0.083252 18.2917ZM16.7499 14.125L13.8333 1.47916C13.7697 1.20093 13.6058 0.955898 13.3729 0.790888C13.1401 0.625878 12.8546 0.552469 12.571 0.584694C12.2874 0.616918 12.0256 0.752515 11.8357 0.965567C11.6458 1.17862 11.5411 1.45418 11.5416 1.73958V6.90624C11.7083 6.86458 11.8853 6.83333 12.0624 6.83333C13.2083 6.83333 14.1458 7.77083 14.1458 8.91666V12.0417C14.1458 12.3333 13.9166 12.5625 13.6249 12.5625C13.3333 12.5625 13.1041 12.3333 13.1041 12.0417V8.91666C13.1041 8.34374 12.6353 7.87499 12.0624 7.87499C11.8645 7.87499 11.6978 7.94791 11.5416 8.04166C11.4166 8.11458 11.3228 8.20833 11.2395 8.31249C11.2083 8.35416 11.1666 8.39583 11.1458 8.44791C11.1249 8.48958 11.1041 8.53124 11.0937 8.57291C11.052 8.6875 11.0208 8.79166 11.0208 8.91666V14.3542C11.0208 14.875 11.2187 15.375 11.5728 15.7604L14.4791 18.9375L18.0208 15.3958L16.7499 14.125ZM19.1249 16.5L15.5312 20.0937L16.7499 21.4167L20.9166 18.2917L19.1249 16.5Z" fill="#8A8A8A"/>
</svg>
