<svg width="21" height="22" viewBox="0 0 21 22" fill="none" xmlns="http://www.w3.org/2000/svg">
<path d="M10.5 0.84375C4.89111 0.84375 0.34375 5.39111 0.34375 11C0.34375 16.6089 4.89111 21.1562 10.5 21.1562C16.1089 21.1562 20.6562 16.6089 20.6562 11C20.6562 5.39111 16.1089 0.84375 10.5 0.84375ZM15.1875 12.5625H10.5C10.2928 12.5625 10.0941 12.4802 9.94757 12.3337C9.80106 12.1872 9.71875 11.9885 9.71875 11.7812V4.75C9.71875 4.5428 9.80106 4.34409 9.94757 4.19757C10.0941 4.05106 10.2928 3.96875 10.5 3.96875C10.7072 3.96875 10.9059 4.05106 11.0524 4.19757C11.1989 4.34409 11.2812 4.5428 11.2812 4.75V11H15.1875C15.3947 11 15.5934 11.0823 15.7399 11.2288C15.8864 11.3753 15.9688 11.574 15.9688 11.7812C15.9688 11.9885 15.8864 12.1872 15.7399 12.3337C15.5934 12.4802 15.3947 12.5625 15.1875 12.5625Z" fill="#8A8A8A"/>
</svg>
