<svg width="18" height="14" viewBox="0 0 18 14" fill="none" xmlns="http://www.w3.org/2000/svg">
<path d="M17.6323 2.0324C16.9793 2.29931 16.2866 2.47448 15.5774 2.5521C16.3161 2.14363 16.8834 1.4968 17.1505 0.726115C16.4482 1.11055 15.6798 1.38142 14.8786 1.52703C14.2259 0.885607 13.2961 0.484741 12.267 0.484741C10.2911 0.484741 8.68911 1.96252 8.68911 3.78517C8.68911 4.04389 8.72079 4.29576 8.78176 4.53738C5.80828 4.3997 3.17201 3.08575 1.40734 1.0889C1.09943 1.57636 0.923001 2.14338 0.923001 2.74816C0.923001 3.89326 1.55469 4.90344 2.51464 5.49534C1.94648 5.47895 1.39081 5.33739 0.89405 5.08247C0.893868 5.0963 0.8938 5.11014 0.893845 5.12401C0.893845 6.72314 2.1271 8.05713 3.76377 8.36034C3.23692 8.49251 2.68429 8.51185 2.14809 8.4169C2.60334 9.72815 3.92468 10.6823 5.49023 10.709C4.26576 11.5942 2.72303 12.1219 1.04684 12.1219C0.758013 12.1219 0.473268 12.1063 0.193359 12.0758C1.77669 13.0122 3.6573 13.5586 5.67776 13.5586C12.2587 13.5586 15.8573 8.52939 15.8573 4.16794C15.8573 4.02479 15.8539 3.88245 15.847 3.74093C16.5474 3.27377 17.1519 2.69522 17.6323 2.0324Z" fill="#55ACEE"/>
</svg>
